# xmcd
#
# Track frame offsets:
#	150
#	26754
#	44279
#	64419
#	89539
#	108729
#	129517
#	155572
#	176281
#	200704
#	220241
#	240151
#	271574
#	291819
#	319534
#	340013
#	369128
#	385276
#	407369
#	421887
#
# Disc length: 6131 seconds
#
# Revision: 0
# Processed by: cddbd v1.5.2PL0 Copyright (c) Steve Scherf et al.
# Submitted via: EasyCDDAExtractor 12.0.4.1
#
DISCID=2417f114
DTITLE=Various Artist - Rest In Piece Ronnie James Dio 1942-2010
DYEAR=2010
DGENRE=Hard Rock
TTITLE0=Dio - Holy Diver
TTITLE1=Black Sabbath - Neon Knights
TTITLE2=Rainbow - Kill The King
TTITLE3=Black Sabbath - Children Of The Sea
TTITLE4=Dio - Rainbow In The Dark
TTITLE5=Rainbow - Man On The Silver Mountain
TTITLE6=Dio - The Last In Line
TTITLE7=Dio - We Rock
TTITLE8=Dio - Invisible
TTITLE9=Rainbow - Long Live Rock N Roll
TTITLE10=Dio - Killing The Dragon
TTITLE11=Black Sabbath - Heaven And Hell
TTITLE12=Dio - Dream Evil
TTITLE13=Rainbow - Tarot Woman
TTITLE14=Dio - Rock N Roll Children
TTITLE15=Dio - Sacred Heart
TTITLE16=Dio - Mystery
TTITLE17=Dio - Dont Talk To Strangers
TTITLE18=Black Sabbath - Mob Rules
TTITLE19=Rainbow - Stargazer
EXTD=
EXTT0=
EXTT1=
EXTT2=
EXTT3=
EXTT4=
EXTT5=
EXTT6=
EXTT7=
EXTT8=
EXTT9=
EXTT10=
EXTT11=
EXTT12=
EXTT13=
EXTT14=
EXTT15=
EXTT16=
EXTT17=
EXTT18=
EXTT19=
PLAYORDER=
